<svg id="Layer_1" viewBox="0 0 24 24" xmlns="http://www.w3.org/2000/svg" data-name="Layer 1" fill="#FFFFFF"><path d="m24 11.5v2c0 3.032-2.467 5.5-5.5 5.5h-5v2h3c.829 0 1.5.672 1.5 1.5s-.671 1.5-1.5 1.5h-9c-.829 0-1.5-.672-1.5-1.5s.671-1.5 1.5-1.5h3v-2h-5c-3.033 0-5.5-2.468-5.5-5.5v-8c0-3.032 2.467-5.5 5.5-5.5h7c.829 0 1.5.672 1.5 1.5s-.671 1.5-1.5 1.5h-7c-1.378 0-2.5 1.121-2.5 2.5v8c0 1.379 1.122 2.5 2.5 2.5h13c1.378 0 2.5-1.121 2.5-2.5v-2c0-.828.671-1.5 1.5-1.5s1.5.672 1.5 1.5zm-4-3.5c2.206 0 4-1.794 4-4s-1.794-4-4-4-4 1.794-4 4 1.794 4 4 4zm-6.625.232-1.492 1.119c-.27-.784-1.007-1.351-1.883-1.351h-3c-1.105 0-2 .895-2 2v2c0 1.105.895 2 2 2h3c.868 0 1.599-.556 1.876-1.329l1.499 1.124c.67.502 1.625.025 1.625-.812v-3.939c0-.836-.956-1.314-1.625-.812z"/></svg>